Metropolis-Thin.ufo
<glyph name="exclam" format="2">
	<advance width="216"/>
	<unicode hex="0021"/>
	<outline>
		<contour>
			<point x="90" y="687" type="line"/>
			<point x="90" y="193" type="line"/>
			<point x="126" y="193" type="line"/>
			<point x="126" y="687" type="line"/>
		</contour>
		<contour>
			<point x="108" y="-12" type="curve"/>
			<point x="108" y="-12" type="line"/>
			<point x="124" y="-12"/>
			<point x="137" y="2"/>
			<point x="137" y="19" type="curve"/>
			<point x="137" y="34"/>
			<point x="124" y="48"/>
			<point x="108" y="48" type="curve"/>
			<point x="90" y="48"/>
			<point x="77" y="34"/>
			<point x="77" y="19" type="curve"/>
			<point x="77" y="2"/>
			<point x="90" y="-12"/>
		</contour>
	</outline>
</glyph>
<glyph name="dollar" format="2">
	<advance width="682"/>
	<unicode hex="0024"/>
	<anchor x="353" y="687" name="top"/>
	<anchor x="353" y="0" name="bottom"/>
	<outline>
		<contour>
			<point x="318" y="759" type="line"/>
			<point x="318" y="-74" type="line"/>
			<point x="354" y="-74" type="line"/>
			<point x="354" y="759" type="line"/>
		</contour>
		<contour>
			<point x="359" y="-11" type="curve"/>
			<point x="359" y="-11" type="line"/>
			<point x="495" y="-11"/>
			<point x="591" y="67"/>
			<point x="591" y="177" type="curve"/>
			<point x="591" y="273"/>
			<point x="526" y="327"/>
			<point x="365" y="365" type="curve"/>
			<point x="217" y="401"/>
			<point x="158" y="441"/>
			<point x="158" y="507" type="curve"/>
			<point x="158" y="599"/>
			<point x="233" y="664"/>
			<point x="340" y="664" type="curve"/>
			<point x="420" y="664"/>
			<point x="498" y="631"/>
			<point x="557" y="574" type="curve"/>
			<point x="579" y="602" type="line"/>
			<point x="512" y="664"/>
			<point x="426" y="700"/>
			<point x="342" y="700" type="curve"/>
			<point x="213" y="700"/>
			<point x="122" y="619"/>
			<point x="122" y="504" type="curve"/>
			<point x="122" y="418"/>
			<point x="186" y="369"/>
			<point x="347" y="332" type="curve"/>
			<point x="496" y="297"/>
			<point x="555" y="252"/>
			<point x="555" y="174" type="curve"/>
			<point x="555" y="87"/>
			<point x="474" y="25"/>
			<point x="360" y="25" type="curve"/>
			<point x="266" y="25"/>
			<point x="173" y="63"/>
			<point x="110" y="126" type="curve"/>
			<point x="88" y="98" type="line"/>
			<point x="158" y="29"/>
			<point x="258" y="-11"/>
		</contour>
	</outline>
</glyph>
<glyph name="percent" format="2">
	<advance width="836"/>
	<unicode hex="0025"/>
	<outline>
		<contour>
			<point x="630" y="687" type="line"/>
			<point x="160" y="0" type="line"/>
			<point x="208" y="0" type="line"/>
			<point x="678" y="687" type="line"/>
		</contour>
		<contour>
			<point x="608" y="-10" type="curve"/>
			<point x="608" y="-10" type="line"/>
			<point x="694" y="-10"/>
			<point x="755" y="62"/>
			<point x="755" y="163" type="curve"/>
			<point x="755" y="263"/>
			<point x="695" y="334"/>
			<point x="609" y="334" type="curve"/>
			<point x="523" y="334"/>
			<point x="463" y="263"/>
			<point x="463" y="162" type="curve"/>
			<point x="463" y="61"/>
			<point x="523" y="-10"/>
		</contour>
		<contour>
			<point x="609" y="26" type="curve"/>
			<point x="609" y="26" type="line"/>
			<point x="545" y="26"/>
			<point x="499" y="83"/>
			<point x="499" y="163" type="curve"/>
			<point x="499" y="242"/>
			<point x="544" y="298"/>
			<point x="608" y="298" type="curve"/>
			<point x="673" y="298"/>
			<point x="719" y="242"/>
			<point x="719" y="162" type="curve"/>
			<point x="719" y="82"/>
			<point x="673" y="26"/>
		</contour>
		<contour>
			<point x="226" y="349" type="curve"/>
			<point x="226" y="349" type="line"/>
			<point x="312" y="349"/>
			<point x="373" y="420"/>
			<point x="373" y="521" type="curve"/>
			<point x="373" y="622"/>
			<point x="313" y="693"/>
			<point x="227" y="693" type="curve"/>
			<point x="141" y="693"/>
			<point x="81" y="621"/>
			<point x="81" y="519" type="curve"/>
			<point x="81" y="419"/>
			<point x="141" y="349"/>
		</contour>
		<contour>
			<point x="227" y="385" type="curve"/>
			<point x="227" y="385" type="line"/>
			<point x="163" y="385"/>
			<point x="117" y="441"/>
			<point x="117" y="520" type="curve"/>
			<point x="117" y="600"/>
			<point x="162" y="657"/>
			<point x="226" y="657" type="curve"/>
			<point x="291" y="657"/>
			<point x="337" y="600"/>
			<point x="337" y="520" type="curve"/>
			<point x="337" y="441"/>
			<point x="291" y="385"/>
		</contour>
	</outline>
</glyph>
<glyph name="parenleft" format="2">
	<advance width="359"/>
	<unicode hex="0028"/>
	<outline>
		<contour>
			<point x="268" y="-170" type="curve"/>
			<point x="268" y="-170" type="line"/>
			<point x="293" y="-143" type="line"/>
			<point x="176" y="-24"/>
			<point x="107" y="128"/>
			<point x="107" y="265" type="curve"/>
			<point x="107" y="402"/>
			<point x="176" y="554"/>
			<point x="293" y="674" type="curve"/>
			<point x="268" y="700" type="line"/>
			<point x="144" y="572"/>
			<point x="71" y="410"/>
			<point x="71" y="265" type="curve"/>
			<point x="71" y="118"/>
			<point x="144" y="-44"/>
		</contour>
	</outline>
</glyph>
<glyph name="parenright" format="2">
	<advance width="359"/>
	<unicode hex="0029"/>
	<outline>
		<contour>
			<point x="66" y="-143" type="curve"/>
			<point x="91" y="-170" type="line"/>
			<point x="215" y="-44"/>
			<point x="288" y="118"/>
			<point x="288" y="265" type="curve"/>
			<point x="288" y="410"/>
			<point x="215" y="572"/>
			<point x="91" y="700" type="curve"/>
			<point x="66" y="674" type="line"/>
			<point x="183" y="554"/>
			<point x="252" y="402"/>
			<point x="252" y="265" type="curve"/>
			<point x="252" y="128"/>
			<point x="183" y="-24"/>
		</contour>
	</outline>
</glyph>
<glyph name="plus" format="2">
	<advance width="617"/>
	<unicode hex="002B"/>
	<outline>
		<contour>
			<point x="79" y="352" type="line"/>
			<point x="79" y="316" type="line"/>
			<point x="538" y="316" type="line"/>
			<point x="538" y="352" type="line"/>
		</contour>
		<contour>
			<point x="291" y="564" type="line"/>
			<point x="291" y="105" type="line"/>
			<point x="327" y="105" type="line"/>
			<point x="327" y="564" type="line"/>
		</contour>
	</outline>
</glyph>
<glyph name="comma" format="2">
	<advance width="229"/>
	<unicode hex="002C"/>
	<outline>
		<contour>
			<point x="69" y="-104" type="curve"/>
			<point x="95" y="-123" type="line"/>
			<point x="134" y="-72"/>
			<point x="153" y="-29"/>
			<point x="153" y="6" type="curve"/>
			<point x="153" y="33"/>
			<point x="140" y="48"/>
			<point x="121" y="48" type="curve"/>
			<point x="103" y="48"/>
			<point x="90" y="35"/>
			<point x="90" y="18" type="curve"/>
			<point x="90" y="1"/>
			<point x="102" y="-12"/>
			<point x="121" y="-12" type="curve"/>
			<point x="114" y="-40"/>
			<point x="95" y="-74"/>
		</contour>
	</outline>
</glyph>
<glyph name="period" format="2">
	<advance width="221"/>
	<unicode hex="002E"/>
	<outline>
		<contour>
			<point x="111" y="-12" type="curve"/>
			<point x="111" y="-12" type="line"/>
			<point x="127" y="-12"/>
			<point x="140" y="2"/>
			<point x="140" y="19" type="curve"/>
			<point x="140" y="34"/>
			<point x="127" y="48"/>
			<point x="111" y="48" type="curve"/>
			<point x="93" y="48"/>
			<point x="80" y="34"/>
			<point x="80" y="19" type="curve"/>
			<point x="80" y="2"/>
			<point x="93" y="-12"/>
		</contour>
	</outline>
</glyph>
<glyph name="slash" format="2">
	<advance width="478"/>
	<unicode hex="002F"/>
	<outline>
		<contour>
			<point x="395" y="743" type="line"/>
			<point x="44" y="-74" type="line"/>
			<point x="83" y="-74" type="line"/>
			<point x="434" y="743" type="line"/>
		</contour>
	</outline>
</glyph>
<glyph name="three" format="2">
	<advance width="591"/>
	<unicode hex="0033"/>
	<outline>
		<contour>
			<point x="302" y="-12" type="curve"/>
			<point x="302" y="-12" type="line"/>
			<point x="420" y="-12"/>
			<point x="520" y="79"/>
			<point x="520" y="187" type="curve"/>
			<point x="520" y="272"/>
			<point x="473" y="334"/>
			<point x="393" y="352" type="curve"/>
			<point x="463" y="373"/>
			<point x="505" y="432"/>
			<point x="505" y="511" type="curve"/>
			<point x="505" y="613"/>
			<point x="411" y="699"/>
			<point x="299" y="699" type="curve"/>
			<point x="214" y="699"/>
			<point x="141" y="656"/>
			<point x="75" y="568" type="curve"/>
			<point x="102" y="544" type="line"/>
			<point x="158" y="624"/>
			<point x="222" y="663"/>
			<point x="295" y="663" type="curve"/>
			<point x="389" y="663"/>
			<point x="469" y="592"/>
			<point x="469" y="507" type="curve"/>
			<point x="469" y="418"/>
			<point x="401" y="366"/>
			<point x="286" y="366" type="curve"/>
			<point x="223" y="366" type="line"/>
			<point x="223" y="330" type="line"/>
			<point x="285" y="330" type="line" smooth="yes"/>
			<point x="410" y="330"/>
			<point x="484" y="278"/>
			<point x="484" y="189" type="curve"/>
			<point x="484" y="99"/>
			<point x="401" y="24"/>
			<point x="302" y="24" type="curve"/>
			<point x="215" y="24"/>
			<point x="146" y="64"/>
			<point x="93" y="145" type="curve"/>
			<point x="67" y="120" type="line"/>
			<point x="134" y="31"/>
			<point x="211" y="-12"/>
		</contour>
	</outline>
</glyph>
<glyph name="colon" format="2">
	<advance width="212"/>
	<unicode hex="003A"/>
	<outline>
		<contour>
			<point x="107" y="437" type="curve"/>
			<point x="107" y="437" type="line"/>
			<point x="123" y="437"/>
			<point x="136" y="451"/>
			<point x="136" y="468" type="curve"/>
			<point x="136" y="483"/>
			<point x="123" y="497"/>
			<point x="107" y="497" type="curve"/>
			<point x="89" y="497"/>
			<point x="76" y="483"/>
			<point x="76" y="468" type="curve"/>
			<point x="76" y="451"/>
			<point x="89" y="437"/>
		</contour>
		<contour>
			<point x="107" y="-12" type="curve"/>
			<point x="107" y="-12" type="line"/>
			<point x="123" y="-12"/>
			<point x="136" y="2"/>
			<point x="136" y="19" type="curve"/>
			<point x="136" y="34"/>
			<point x="123" y="48"/>
			<point x="107" y="48" type="curve"/>
			<point x="89" y="48"/>
			<point x="76" y="34"/>
			<point x="76" y="19" type="curve"/>
			<point x="76" y="2"/>
			<point x="89" y="-12"/>
		</contour>
	</outline>
</glyph>
<glyph name="less" format="2">
	<advance width="618"/>
	<unicode hex="003C"/>
	<outline>
		<contour>
			<point x="80" y="322" type="line"/>
			<point x="535" y="102" type="line"/>
			<point x="535" y="146" type="line"/>
			<point x="127" y="344" type="line"/>
			<point x="535" y="542" type="line"/>
			<point x="535" y="586" type="line"/>
			<point x="80" y="366" type="line"/>
		</contour>
	</outline>
</glyph>
<glyph name="greater" format="2">
	<advance width="618"/>
	<unicode hex="003E"/>
	<outline>
		<contour>
			<point x="83" y="146" type="line"/>
			<point x="83" y="102" type="line"/>
			<point x="538" y="322" type="line"/>
			<point x="538" y="366" type="line"/>
			<point x="83" y="586" type="line"/>
			<point x="83" y="542" type="line"/>
			<point x="491" y="344" type="line"/>
		</contour>
	</outline>
</glyph>
<glyph name="question" format="2">
	<advance width="550"/>
	<unicode hex="003F"/>
	<outline>
		<contour>
			<point x="245" y="356" type="curve"/>
			<point x="245" y="193" type="line"/>
			<point x="281" y="193" type="line"/>
			<point x="281" y="326" type="line"/>
			<point x="398" y="346"/>
			<point x="481" y="423"/>
			<point x="481" y="514" type="curve"/>
			<point x="481" y="614"/>
			<point x="394" y="699"/>
			<point x="291" y="699" type="curve"/>
			<point x="202" y="699"/>
			<point x="128" y="661"/>
			<point x="66" y="584" type="curve"/>
			<point x="92" y="559" type="line"/>
			<point x="142" y="629"/>
			<point x="207" y="663"/>
			<point x="289" y="663" type="curve"/>
			<point x="374" y="663"/>
			<point x="445" y="594"/>
			<point x="445" y="511" type="curve"/>
			<point x="445" y="430"/>
			<point x="362" y="365"/>
		</contour>
		<contour>
			<point x="263" y="-12" type="curve"/>
			<point x="263" y="-12" type="line"/>
			<point x="279" y="-12"/>
			<point x="292" y="2"/>
			<point x="292" y="19" type="curve"/>
			<point x="292" y="34"/>
			<point x="279" y="48"/>
			<point x="263" y="48" type="curve"/>
			<point x="245" y="48"/>
			<point x="232" y="34"/>
			<point x="232" y="19" type="curve"/>
			<point x="232" y="2"/>
			<point x="245" y="-12"/>
		</contour>
	</outline>
</glyph>
<glyph name="at" format="2">
	<advance width="957"/>
	<unicode hex="0040"/>
	<outline>
		<contour>
			<point x="464" y="-116" type="curve"/>
			<point x="464" y="-116" type="line"/>
			<point x="555" y="-116"/>
			<point x="623" y="-96"/>
			<point x="700" y="-47" type="curve"/>
			<point x="682" y="-20" type="line"/>
			<point x="609" y="-64"/>
			<point x="548" y="-81"/>
			<point x="466" y="-81" type="curve"/>
			<point x="278" y="-81"/>
			<point x="120" y="75"/>
			<point x="120" y="260" type="curve"/>
			<point x="120" y="466"/>
			<point x="293" y="639"/>
			<point x="498" y="639" type="curve"/>
			<point x="683" y="639"/>
			<point x="839" y="493"/>
			<point x="839" y="319" type="curve"/>
			<point x="839" y="179"/>
			<point x="765" y="114"/>
			<point x="710" y="114" type="curve"/>
			<point x="665" y="114"/>
			<point x="629" y="143"/>
			<point x="629" y="191" type="curve"/>
			<point x="629" y="216"/>
			<point x="649" y="322"/>
			<point x="685" y="481" type="curve"/>
			<point x="645" y="486" type="line"/>
			<point x="631" y="420" type="line"/>
			<point x="609" y="463"/>
			<point x="559" y="501"/>
			<point x="488" y="501" type="curve"/>
			<point x="370" y="501"/>
			<point x="270" y="387"/>
			<point x="270" y="251" type="curve"/>
			<point x="270" y="150"/>
			<point x="333" y="78"/>
			<point x="423" y="78" type="curve"/>
			<point x="492" y="78"/>
			<point x="554" y="116"/>
			<point x="591" y="164" type="curve"/>
			<point x="602" y="110"/>
			<point x="643" y="78"/>
			<point x="700" y="78" type="curve"/>
			<point x="788" y="78"/>
			<point x="875" y="156"/>
			<point x="875" y="319" type="curve"/>
			<point x="875" y="512"/>
			<point x="704" y="675"/>
			<point x="500" y="675" type="curve"/>
			<point x="273" y="675"/>
			<point x="82" y="485"/>
			<point x="82" y="259" type="curve"/>
			<point x="82" y="55"/>
			<point x="257" y="-116"/>
		</contour>
		<contour>
			<point x="432" y="114" type="curve"/>
			<point x="432" y="114" type="line"/>
			<point x="358" y="114"/>
			<point x="306" y="172"/>
			<point x="306" y="255" type="curve"/>
			<point x="306" y="369"/>
			<point x="391" y="465"/>
			<point x="492" y="465" type="curve"/>
			<point x="578" y="465"/>
			<point x="626" y="394"/>
			<point x="607" y="294" type="curve"/>
			<point x="589" y="199"/>
			<point x="526" y="114"/>
		</contour>
	</outline>
</glyph>
<glyph name="B" format="2">
	<advance width="678"/>
	<unicode hex="0042"/>
	<outline>
		<contour>
			<point x="98" y="687" type="line"/>
			<point x="98" y="0" type="line"/>
			<point x="397" y="0" type="line" smooth="yes"/>
			<point x="516" y="0"/>
			<point x="601" y="78"/>
			<point x="601" y="188" type="curve"/>
			<point x="601" y="264"/>
			<point x="550" y="335"/>
			<point x="478" y="358" type="curve"/>
			<point x="534" y="377"/>
			<point x="574" y="443"/>
			<point x="574" y="516" type="curve"/>
			<point x="574" y="616"/>
			<point x="496" y="687"/>
			<point x="385" y="687" type="curve"/>
		</contour>
		<contour>
			<point x="397" y="36" type="curve"/>
			<point x="134" y="36" type="line"/>
			<point x="134" y="340" type="line"/>
			<point x="397" y="340" type="line" smooth="yes"/>
			<point x="495" y="340"/>
			<point x="565" y="277"/>
			<point x="565" y="188" type="curve"/>
			<point x="565" y="99"/>
			<point x="495" y="36"/>
		</contour>
		<contour>
			<point x="397" y="376" type="curve"/>
			<point x="134" y="376" type="line"/>
			<point x="134" y="651" type="line"/>
			<point x="385" y="651" type="line" smooth="yes"/>
			<point x="475" y="651"/>
			<point x="538" y="595"/>
			<point x="538" y="516" type="curve"/>
			<point x="538" y="434"/>
			<point x="480" y="376"/>
		</contour>
	</outline>
</glyph>
<glyph name="C" format="2">
	<advance width="752"/>
	<unicode hex="0043"/>
	<anchor x="431" y="687" name="top"/>
	<anchor x="431" y="0" name="bottom"/>
	<outline>
		<contour>
			<point x="431" y="-12" type="curve"/>
			<point x="431" y="-12" type="line"/>
			<point x="526" y="-12"/>
			<point x="614" y="29"/>
			<point x="678" y="93" type="curve"/>
			<point x="652" y="119" type="line"/>
			<point x="595" y="60"/>
			<point x="516" y="24"/>
			<point x="431" y="24" type="curve"/>
			<point x="259" y="24"/>
			<point x="115" y="170"/>
			<point x="115" y="344" type="curve"/>
			<point x="115" y="517"/>
			<point x="259" y="663"/>
			<point x="431" y="663" type="curve"/>
			<point x="516" y="663"/>
			<point x="595" y="627"/>
			<point x="652" y="569" type="curve"/>
			<point x="678" y="594" type="line"/>
			<point x="614" y="659"/>
			<point x="526" y="699"/>
			<point x="431" y="699" type="curve"/>
			<point x="240" y="699"/>
			<point x="79" y="537"/>
			<point x="79" y="344" type="curve"/>
			<point x="79" y="151"/>
			<point x="240" y="-12"/>
		</contour>
	</outline>
</glyph>
<glyph name="D" format="2">
	<advance width="764"/>
	<unicode hex="0044"/>
	<anchor x="333" y="687" name="top"/>
	<outline>
		<contour>
			<point x="98" y="687" type="line"/>
			<point x="98" y="0" type="line"/>
			<point x="333" y="0" type="line" smooth="yes"/>
			<point x="539" y="0"/>
			<point x="685" y="143"/>
			<point x="685" y="344" type="curve"/>
			<point x="685" y="545"/>
			<point x="539" y="687"/>
			<point x="333" y="687" type="curve"/>
		</contour>
		<contour>
			<point x="333" y="36" type="curve"/>
			<point x="134" y="36" type="line"/>
			<point x="134" y="651" type="line"/>
			<point x="333" y="651" type="line" smooth="yes"/>
			<point x="518" y="651"/>
			<point x="649" y="524"/>
			<point x="649" y="344" type="curve"/>
			<point x="649" y="164"/>
			<point x="518" y="36"/>
		</contour>
	</outline>
</glyph>
<glyph name="E" format="2">
	<advance width="625"/>
	<unicode hex="0045"/>
	<anchor x="98" y="687" name="ae_upper"/>
	<anchor x="549" y="0" name="bottom"/>
	<anchor x="324" y="687" name="top"/>
	<outline>
		<contour>
			<point x="98" y="687" type="line"/>
			<point x="98" y="0" type="line"/>
			<point x="549" y="0" type="line"/>
			<point x="549" y="36" type="line"/>
			<point x="125" y="36" type="line"/>
			<point x="134" y="26" type="line"/>
			<point x="134" y="342" type="line"/>
			<point x="125" y="332" type="line"/>
			<point x="518" y="332" type="line"/>
			<point x="518" y="368" type="line"/>
			<point x="125" y="368" type="line"/>
			<point x="134" y="358" type="line"/>
			<point x="134" y="661" type="line"/>
			<point x="125" y="651" type="line"/>
			<point x="549" y="651" type="line"/>
			<point x="549" y="687" type="line"/>
		</contour>
	</outline>
</glyph>
<glyph name="F" format="2">
	<advance width="643"/>
	<unicode hex="0046"/>
	<outline>
		<contour>
			<point x="98" y="687" type="line"/>
			<point x="98" y="0" type="line"/>
			<point x="134" y="0" type="line"/>
			<point x="134" y="342" type="line"/>
			<point x="124" y="332" type="line"/>
			<point x="528" y="332" type="line"/>
			<point x="528" y="368" type="line"/>
			<point x="124" y="368" type="line"/>
			<point x="134" y="358" type="line"/>
			<point x="134" y="661" type="line"/>
			<point x="124" y="651" type="line"/>
			<point x="569" y="651" type="line"/>
			<point x="569" y="687" type="line"/>
		</contour>
	</outline>
</glyph>
<glyph name="H" format="2">
	<advance width="715"/>
	<unicode hex="0048"/>
	<outline>
		<contour>
			<point x="98" y="687" type="line"/>
			<point x="98" y="0" type="line"/>
			<point x="134" y="0" type="line"/>
			<point x="134" y="343" type="line"/>
			<point x="133" y="332" type="line"/>
			<point x="581" y="332" type="line"/>
			<point x="581" y="343" type="line"/>
			<point x="581" y="0" type="line"/>
			<point x="617" y="0" type="line"/>
			<point x="617" y="687" type="line"/>
			<point x="581" y="687" type="line"/>
			<point x="581" y="357" type="line"/>
			<point x="582" y="368" type="line"/>
			<point x="133" y="368" type="line"/>
			<point x="134" y="357" type="line"/>
			<point x="134" y="687" type="line"/>
		</contour>
	</outline>
</glyph>
<glyph name="I" format="2">
	<advance width="232"/>
	<unicode hex="0049"/>
	<anchor x="116" y="687" name="top"/>
	<anchor x="134" y="0" name="bottom"/>
	<outline>
		<contour>
			<point x="98" y="687" type="line"/>
			<point x="98" y="0" type="line"/>
			<point x="134" y="0" type="line"/>
			<point x="134" y="687" type="line"/>
		</contour>
	</outline>
</glyph>
<glyph name="J" format="2">
	<advance width="574"/>
	<unicode hex="004A"/>
	<outline>
		<contour>
			<point x="275" y="-12" type="curve"/>
			<point x="275" y="-12" type="line"/>
			<point x="396" y="-12"/>
			<point x="481" y="82"/>
			<point x="481" y="214" type="curve"/>
			<point x="481" y="687" type="line"/>
			<point x="445" y="687" type="line"/>
			<point x="445" y="214" type="line" smooth="yes"/>
			<point x="445" y="103"/>
			<point x="375" y="24"/>
			<point x="275" y="24" type="curve"/>
			<point x="203" y="24"/>
			<point x="135" y="68"/>
			<point x="96" y="130" type="curve"/>
			<point x="74" y="102" type="line"/>
			<point x="116" y="35"/>
			<point x="193" y="-12"/>
		</contour>
	</outline>
</glyph>
<glyph name="M" format="2">
	<advance width="820"/>
	<unicode hex="004D"/>
	<outline>
		<contour>
			<point x="98" y="687" type="line"/>
			<point x="98" y="0" type="line"/>
			<point x="134" y="0" type="line"/>
			<point x="134" y="615" type="line"/>
			<point x="410" y="96" type="line"/>
			<point x="686" y="615" type="line"/>
			<point x="686" y="0" type="line"/>
			<point x="722" y="0" type="line"/>
			<point x="722" y="687" type="line"/>
			<point x="686" y="687" type="line"/>
			<point x="410" y="168" type="line"/>
			<point x="134" y="687" type="line"/>
		</contour>
	</outline>
</glyph>
<glyph name="O" format="2">
	<advance width="861"/>
	<unicode hex="004F"/>
	<anchor x="431" y="687" name="top"/>
	<outline>
		<contour>
			<point x="431" y="-12" type="curve"/>
			<point x="431" y="-12" type="line"/>
			<point x="621" y="-12"/>
			<point x="782" y="152"/>
			<point x="782" y="344" type="curve"/>
			<point x="782" y="536"/>
			<point x="621" y="699"/>
			<point x="431" y="699" type="curve"/>
			<point x="241" y="699"/>
			<point x="79" y="536"/>
			<point x="79" y="344" type="curve"/>
			<point x="79" y="152"/>
			<point x="241" y="-12"/>
		</contour>
		<contour>
			<point x="431" y="24" type="curve"/>
			<point x="431" y="24" type="line"/>
			<point x="260" y="24"/>
			<point x="115" y="171"/>
			<point x="115" y="344" type="curve"/>
			<point x="115" y="516"/>
			<point x="260" y="663"/>
			<point x="431" y="663" type="curve"/>
			<point x="601" y="663"/>
			<point x="746" y="516"/>
			<point x="746" y="344" type="curve"/>
			<point x="746" y="171"/>
			<point x="601" y="24"/>
		</contour>
	</outline>
</glyph>
<glyph name="Q" format="2">
	<advance width="861"/>
	<unicode hex="0051"/>
	<anchor x="431" y="687" name="top"/>
	<outline>
		<contour>
			<point x="483" y="210" type="line"/>
			<point x="725" y="0" type="line"/>
			<point x="749" y="27" type="line"/>
			<point x="506" y="237" type="line"/>
		</contour>
		<contour>
			<point x="431" y="-12" type="curve"/>
			<point x="431" y="-12" type="line"/>
			<point x="622" y="-12"/>
			<point x="782" y="151"/>
			<point x="782" y="344" type="curve"/>
			<point x="782" y="537"/>
			<point x="622" y="699"/>
			<point x="431" y="699" type="curve"/>
			<point x="240" y="699"/>
			<point x="79" y="537"/>
			<point x="79" y="344" type="curve"/>
			<point x="79" y="151"/>
			<point x="240" y="-12"/>
		</contour>
		<contour>
			<point x="431" y="24" type="curve"/>
			<point x="431" y="24" type="line"/>
			<point x="259" y="24"/>
			<point x="115" y="170"/>
			<point x="115" y="344" type="curve"/>
			<point x="115" y="517"/>
			<point x="259" y="663"/>
			<point x="431" y="663" type="curve"/>
			<point x="602" y="663"/>
			<point x="746" y="517"/>
			<point x="746" y="344" type="curve"/>
			<point x="746" y="170"/>
			<point x="602" y="24"/>
		</contour>
	</outline>
</glyph>
<glyph name="T" format="2">
	<advance width="688"/>
	<unicode hex="0054"/>
	<anchor x="344" y="687" name="top"/>
	<anchor x="344" y="0" name="bottom"/>
	<outline>
		<contour>
			<point x="326" y="651" type="line"/>
			<point x="326" y="0" type="line"/>
			<point x="362" y="0" type="line"/>
			<point x="362" y="651" type="line"/>
			<point x="614" y="651" type="line"/>
			<point x="614" y="687" type="line"/>
			<point x="74" y="687" type="line"/>
			<point x="74" y="651" type="line"/>
		</contour>
	</outline>
</glyph>
<glyph name="W" format="2">
	<advance width="1107"/>
	<unicode hex="0057"/>
	<anchor x="554" y="687" name="top"/>
	<outline>
		<contour>
			<point x="74" y="687" type="line"/>
			<point x="304" y="0" type="line"/>
			<point x="343" y="0" type="line"/>
			<point x="554" y="629" type="line"/>
			<point x="764" y="0" type="line"/>
			<point x="803" y="0" type="line"/>
			<point x="1033" y="687" type="line"/>
			<point x="994" y="687" type="line"/>
			<point x="784" y="58" type="line"/>
			<point x="573" y="687" type="line"/>
			<point x="534" y="687" type="line"/>
			<point x="324" y="58" type="line"/>
			<point x="113" y="687" type="line"/>
		</contour>
	</outline>
</glyph>
<glyph name="Z" format="2">
	<advance width="656"/>
	<unicode hex="005A"/>
	<anchor x="328" y="687" name="top"/>
	<outline>
		<contour>
			<point x="75" y="30" type="line"/>
			<point x="75" y="0" type="line"/>
			<point x="580" y="0" type="line"/>
			<point x="580" y="36" type="line"/>
			<point x="119" y="36" type="line"/>
			<point x="576" y="657" type="line"/>
			<point x="576" y="687" type="line"/>
			<point x="82" y="687" type="line"/>
			<point x="82" y="651" type="line"/>
			<point x="532" y="651" type="line"/>
		</contour>
	</outline>
</glyph>
<glyph name="bracketleft" format="2">
	<advance width="379"/>
	<unicode hex="005B"/>
	<outline>
		<contour>
			<point x="90" y="734" type="line"/>
			<point x="90" y="-115" type="line"/>
			<point x="311" y="-115" type="line"/>
			<point x="311" y="-79" type="line"/>
			<point x="126" y="-79" type="line"/>
			<point x="126" y="698" type="line"/>
			<point x="311" y="698" type="line"/>
			<point x="311" y="734" type="line"/>
		</contour>
	</outline>
</glyph>
<glyph name="backslash" format="2">
	<advance width="478"/>
	<unicode hex="005C"/>
	<outline>
		<contour>
			<point x="44" y="743" type="line"/>
			<point x="395" y="-74" type="line"/>
			<point x="434" y="-74" type="line"/>
			<point x="83" y="743" type="line"/>
		</contour>
	</outline>
</glyph>
<glyph name="bracketright" format="2">
	<advance width="379"/>
	<unicode hex="005D"/>
	<outline>
		<contour>
			<point x="68" y="-79" type="line"/>
			<point x="68" y="-115" type="line"/>
			<point x="289" y="-115" type="line"/>
			<point x="289" y="734" type="line"/>
			<point x="68" y="734" type="line"/>
			<point x="68" y="698" type="line"/>
			<point x="253" y="698" type="line"/>
			<point x="253" y="-79" type="line"/>
		</contour>
	</outline>
</glyph>
<glyph name="a" format="2">
	<advance width="537"/>
	<unicode hex="0061"/>
	<anchor x="293" y="517" name="top"/>
	<anchor x="475" y="0" name="bottom"/>
	<outline>
		<contour>
			<point x="439" y="315" type="curve"/>
			<point x="439" y="0" type="line"/>
			<point x="475" y="0" type="line"/>
			<point x="475" y="315" type="line" smooth="yes"/>
			<point x="475" y="440"/>
			<point x="400" y="529"/>
			<point x="276" y="529" type="curve"/>
			<point x="222" y="529"/>
			<point x="155" y="512"/>
			<point x="98" y="479" type="curve"/>
			<point x="113" y="448" type="line"/>
			<point x="161" y="477"/>
			<point x="219" y="493"/>
			<point x="271" y="493" type="curve"/>
			<point x="394" y="493"/>
			<point x="439" y="402"/>
		</contour>
		<contour>
			<point x="234" y="-12" type="curve"/>
			<point x="234" y="-12" type="line"/>
			<point x="323" y="-12"/>
			<point x="435" y="36"/>
			<point x="456" y="123" type="curve"/>
			<point x="439" y="162" type="line"/>
			<point x="419" y="69"/>
			<point x="317" y="24"/>
			<point x="238" y="24" type="curve"/>
			<point x="152" y="24"/>
			<point x="84" y="78"/>
			<point x="84" y="155" type="curve"/>
			<point x="84" y="233"/>
			<point x="155" y="289"/>
			<point x="260" y="289" type="curve"/>
			<point x="325" y="289"/>
			<point x="397" y="268"/>
			<point x="452" y="248" type="curve"/>
			<point x="452" y="284" type="line"/>
			<point x="391" y="308"/>
			<point x="317" y="325"/>
			<point x="256" y="325" type="curve"/>
			<point x="131" y="325"/>
			<point x="48" y="254"/>
			<point x="48" y="154" type="curve"/>
			<point x="48" y="56"/>
			<point x="127" y="-12"/>
		</contour>
	</outline>
</glyph>
<glyph name="c" format="2">
	<advance width="531"/>
	<unicode hex="0063"/>
	<anchor x="291" y="517" name="top"/>
	<anchor x="301" y="0" name="bottom"/>
	<outline>
		<contour>
			<point x="309" y="-12" type="curve"/>
			<point x="309" y="-12" type="line"/>
			<point x="377" y="-12"/>
			<point x="440" y="17"/>
			<point x="486" y="64" type="curve"/>
			<point x="461" y="89" type="line"/>
			<point x="421" y="49"/>
			<point x="367" y="24"/>
			<point x="309" y="24" type="curve"/>
			<point x="179" y="24"/>
			<point x="87" y="121"/>
			<point x="87" y="259" type="curve"/>
			<point x="87" y="396"/>
			<point x="179" y="493"/>
			<point x="309" y="493" type="curve"/>
			<point x="367" y="493"/>
			<point x="421" y="468"/>
			<point x="460" y="428" type="curve"/>
			<point x="486" y="453" type="line"/>
			<point x="440" y="500"/>
			<point x="377" y="529"/>
			<point x="309" y="529" type="curve"/>
			<point x="158" y="529"/>
			<point x="51" y="417"/>
			<point x="51" y="259" type="curve"/>
			<point x="51" y="100"/>
			<point x="158" y="-12"/>
		</contour>
	</outline>
</glyph>
<glyph name="k" format="2">
	<advance width="523"/>
	<unicode hex="006B"/>
	<anchor x="248" y="0" name="bottom"/>
	<outline>
		<contour>
			<point x="68" y="699" type="line"/>
			<point x="68" y="0" type="line"/>
			<point x="104" y="0" type="line"/>
			<point x="104" y="134" type="line"/>
			<point x="222" y="255" type="line"/>
			<point x="421" y="0" type="line"/>
			<point x="467" y="0" type="line"/>
			<point x="247" y="280" type="line"/>
			<point x="479" y="517" type="line"/>
			<point x="429" y="517" type="line"/>
			<point x="104" y="186" type="line"/>
			<point x="104" y="699" type="line"/>
		</contour>
	</outline>
</glyph>
<glyph name="m" format="2">
	<advance width="837"/>
	<unicode hex="006D"/>
	<outline>
		<contour>
			<point x="403" y="334" type="curve"/>
			<point x="403" y="-1" type="line"/>
			<point x="439" y="-1" type="line"/>
			<point x="439" y="339" type="line" smooth="yes"/>
			<point x="439" y="450"/>
			<point x="367" y="529"/>
			<point x="264" y="529" type="curve"/>
			<point x="165" y="529"/>
			<point x="95" y="472"/>
			<point x="95" y="391" type="curve"/>
			<point x="104" y="339" type="line"/>
			<point x="104" y="429"/>
			<point x="168" y="493"/>
			<point x="259" y="493" type="curve"/>
			<point x="343" y="493"/>
			<point x="403" y="427"/>
		</contour>
		<contour>
			<point x="68" y="517" type="line"/>
			<point x="68" y="-1" type="line"/>
			<point x="104" y="-1" type="line"/>
			<point x="104" y="517" type="line"/>
		</contour>
		<contour>
			<point x="738" y="334" type="curve"/>
			<point x="738" y="-1" type="line"/>
			<point x="774" y="-1" type="line"/>
			<point x="774" y="339" type="line" smooth="yes"/>
			<point x="774" y="450"/>
			<point x="702" y="529"/>
			<point x="599" y="529" type="curve"/>
			<point x="484" y="529"/>
			<point x="404" y="451"/>
			<point x="404" y="339" type="curve"/>
			<point x="439" y="339" type="line"/>
			<point x="439" y="429"/>
			<point x="503" y="493"/>
			<point x="594" y="493" type="curve"/>
			<point x="678" y="493"/>
			<point x="738" y="427"/>
		</contour>
	</outline>
</glyph>
<glyph name="r" format="2">
	<advance width="349"/>
	<unicode hex="0072"/>
	<anchor x="180" y="517" name="top"/>
	<anchor x="180" y="0" name="bottom"/>
	<outline>
		<contour>
			<point x="98" y="359" type="curve"/>
			<point x="104" y="289" type="line"/>
			<point x="104" y="408"/>
			<point x="187" y="493"/>
			<point x="304" y="493" type="curve"/>
			<point x="304" y="529" type="line"/>
			<point x="192" y="529"/>
			<point x="98" y="451"/>
		</contour>
		<contour>
			<point x="68" y="517" type="line"/>
			<point x="68" y="0" type="line"/>
			<point x="104" y="0" type="line"/>
			<point x="104" y="517" type="line"/>
		</contour>
	</outline>
</glyph>
<glyph name="s" format="2">
	<advance width="485"/>
	<unicode hex="0073"/>
	<anchor x="251" y="517" name="top"/>
	<anchor x="247" y="0" name="bottom"/>
	<outline>
		<contour>
			<point x="258" y="-12" type="curve"/>
			<point x="258" y="-12" type="line"/>
			<point x="355" y="-12"/>
			<point x="437" y="50"/>
			<point x="437" y="124" type="curve"/>
			<point x="437" y="197"/>
			<point x="389" y="241"/>
			<point x="269" y="279" type="curve"/>
			<point x="159" y="314"/>
			<point x="115" y="349"/>
			<point x="115" y="401" type="curve"/>
			<point x="115" y="451"/>
			<point x="177" y="493"/>
			<point x="250" y="493" type="curve"/>
			<point x="303" y="493"/>
			<point x="363" y="474"/>
			<point x="413" y="443" type="curve"/>
			<point x="435" y="471" type="line"/>
			<point x="379" y="507"/>
			<point x="311" y="529"/>
			<point x="250" y="529" type="curve"/>
			<point x="157" y="529"/>
			<point x="79" y="469"/>
			<point x="79" y="397" type="curve"/>
			<point x="79" y="328"/>
			<point x="128" y="285"/>
			<point x="251" y="247" type="curve"/>
			<point x="358" y="214"/>
			<point x="401" y="178"/>
			<point x="401" y="120" type="curve"/>
			<point x="401" y="68"/>
			<point x="336" y="24"/>
			<point x="258" y="24" type="curve"/>
			<point x="197" y="24"/>
			<point x="126" y="50"/>
			<point x="66" y="93" type="curve"/>
			<point x="44" y="65" type="line"/>
			<point x="104" y="17"/>
			<point x="184" y="-12"/>
		</contour>
	</outline>
</glyph>
<glyph name="w" format="2">
	<advance width="815"/>
	<unicode hex="0077"/>
	<anchor x="407" y="517" name="top"/>
	<outline>
		<contour>
			<point x="45" y="517" type="line"/>
			<point x="214" y="0" type="line"/>
			<point x="259" y="0" type="line"/>
			<point x="407" y="450" type="line"/>
			<point x="555" y="0" type="line"/>
			<point x="600" y="0" type="line"/>
			<point x="770" y="517" type="line"/>
			<point x="733" y="517" type="line"/>
			<point x="578" y="48" type="line"/>
			<point x="423" y="517" type="line"/>
			<point x="392" y="517" type="line"/>
			<point x="237" y="48" type="line"/>
			<point x="82" y="517" type="line"/>
		</contour>
	</outline>
</glyph>
<glyph name="braceleft" format="2">
	<advance width="438"/>
	<unicode hex="007B"/>
	<outline>
		<contour>
			<point x="366" y="-166" type="curve"/>
			<point x="366" y="-166" type="line"/>
			<point x="370" y="-131" type="line"/>
			<point x="259" y="-119"/>
			<point x="215" y="-79"/>
			<point x="215" y="8" type="curve"/>
			<point x="216" y="151" type="line" smooth="yes"/>
			<point x="216" y="218"/>
			<point x="196" y="251"/>
			<point x="146" y="266" type="curve"/>
			<point x="196" y="280"/>
			<point x="216" y="313"/>
			<point x="216" y="380" type="curve"/>
			<point x="215" y="524" type="line" smooth="yes"/>
			<point x="215" y="610"/>
			<point x="259" y="650"/>
			<point x="370" y="662" type="curve"/>
			<point x="366" y="697" type="line"/>
			<point x="233" y="682"/>
			<point x="180" y="634"/>
			<point x="180" y="528" type="curve"/>
			<point x="180" y="388" type="line" smooth="yes"/>
			<point x="180" y="314"/>
			<point x="148" y="284"/>
			<point x="67" y="284" type="curve"/>
			<point x="67" y="248" type="line"/>
			<point x="148" y="248"/>
			<point x="180" y="218"/>
			<point x="180" y="144" type="curve"/>
			<point x="180" y="3" type="line" smooth="yes"/>
			<point x="180" y="-103"/>
			<point x="233" y="-151"/>
		</contour>
	</outline>
</glyph>
<glyph name="bar" format="2">
	<advance width="240"/>
	<unicode hex="007C"/>
	<outline>
		<contour>
			<point x="102" y="743" type="line"/>
			<point x="102" y="-74" type="line"/>
			<point x="138" y="-74" type="line"/>
			<point x="138" y="743" type="line"/>
		</contour>
	</outline>
</glyph>
<glyph name="cent" format="2">
	<advance width="618"/>
	<unicode hex="00A2"/>
	<anchor x="334" y="517" name="top"/>
	<anchor x="344" y="0" name="bottom"/>
	<outline>
		<contour>
			<point x="317" y="589" type="line"/>
			<point x="317" y="-74" type="line"/>
			<point x="353" y="-74" type="line"/>
			<point x="353" y="589" type="line"/>
		</contour>
		<contour>
			<point x="352" y="-12" type="curve"/>
			<point x="352" y="-12" type="line"/>
			<point x="420" y="-12"/>
			<point x="483" y="17"/>
			<point x="529" y="64" type="curve"/>
			<point x="504" y="89" type="line"/>
			<point x="464" y="49"/>
			<point x="410" y="24"/>
			<point x="352" y="24" type="curve"/>
			<point x="222" y="24"/>
			<point x="130" y="121"/>
			<point x="130" y="259" type="curve"/>
			<point x="130" y="396"/>
			<point x="222" y="493"/>
			<point x="352" y="493" type="curve"/>
			<point x="410" y="493"/>
			<point x="464" y="468"/>
			<point x="503" y="428" type="curve"/>
			<point x="529" y="453" type="line"/>
			<point x="483" y="500"/>
			<point x="420" y="529"/>
			<point x="352" y="529" type="curve"/>
			<point x="201" y="529"/>
			<point x="94" y="417"/>
			<point x="94" y="259" type="curve"/>
			<point x="94" y="100"/>
			<point x="201" y="-12"/>
		</contour>
	</outline>
</glyph>
<glyph name="yen" format="2">
	<advance width="772"/>
	<unicode hex="00A5"/>
	<anchor x="386" y="687" name="top"/>
	<outline>
		<contour>
			<point x="158" y="167" type="line"/>
			<point x="158" y="131" type="line"/>
			<point x="614" y="131" type="line"/>
			<point x="614" y="167" type="line"/>
		</contour>
		<contour>
			<point x="158" y="314" type="line"/>
			<point x="158" y="278" type="line"/>
			<point x="614" y="278" type="line"/>
			<point x="614" y="314" type="line"/>
		</contour>
		<contour>
			<point x="368" y="279" type="line"/>
			<point x="368" y="0" type="line"/>
			<point x="404" y="0" type="line"/>
			<point x="404" y="279" type="line"/>
			<point x="684" y="687" type="line"/>
			<point x="638" y="687" type="line"/>
			<point x="386" y="320" type="line"/>
			<point x="134" y="687" type="line"/>
			<point x="88" y="687" type="line"/>
		</contour>
	</outline>
</glyph>
<glyph name="dieresis" format="2">
	<advance width="368"/>
	<unicode hex="00A8"/>
	<anchor x="184" y="704" name="top"/>
	<anchor x="184" y="517" name="_top"/>
	<outline>
		<contour>
			<point x="88" y="613" type="curve"/>
			<point x="88" y="613" type="line"/>
			<point x="104" y="613"/>
			<point x="118" y="627"/>
			<point x="118" y="643" type="curve"/>
			<point x="118" y="659"/>
			<point x="104" y="673"/>
			<point x="88" y="673" type="curve"/>
			<point x="71" y="673"/>
			<point x="58" y="659"/>
			<point x="58" y="643" type="curve"/>
			<point x="58" y="627"/>
			<point x="71" y="613"/>
		</contour>
		<contour>
			<point x="280" y="613" type="curve"/>
			<point x="280" y="613" type="line"/>
			<point x="296" y="613"/>
			<point x="310" y="627"/>
			<point x="310" y="643" type="curve"/>
			<point x="310" y="659"/>
			<point x="296" y="673"/>
			<point x="280" y="673" type="curve"/>
			<point x="263" y="673"/>
			<point x="250" y="659"/>
			<point x="250" y="643" type="curve"/>
			<point x="250" y="627"/>
			<point x="263" y="613"/>
		</contour>
	</outline>
</glyph>
<glyph name="registered" format="2">
	<advance width="661"/>
	<unicode hex="00AE"/>
	<outline>
		<contour>
			<point x="331" y="184" type="curve"/>
			<point x="331" y="184" type="line"/>
			<point x="466" y="184"/>
			<point x="577" y="295"/>
			<point x="577" y="430" type="curve"/>
			<point x="577" y="565"/>
			<point x="466" y="675"/>
			<point x="331" y="675" type="curve"/>
			<point x="195" y="675"/>
			<point x="84" y="565"/>
			<point x="84" y="430" type="curve"/>
			<point x="84" y="295"/>
			<point x="195" y="184"/>
		</contour>
		<contour>
			<point x="331" y="220" type="curve"/>
			<point x="331" y="220" type="line"/>
			<point x="215" y="220"/>
			<point x="120" y="314"/>
			<point x="120" y="430" type="curve"/>
			<point x="120" y="545"/>
			<point x="215" y="639"/>
			<point x="331" y="639" type="curve"/>
			<point x="447" y="639"/>
			<point x="541" y="545"/>
			<point x="541" y="430" type="curve"/>
			<point x="541" y="314"/>
			<point x="447" y="220"/>
		</contour>
		<contour>
			<point x="324" y="398" type="line"/>
			<point x="406" y="280" type="line"/>
			<point x="445" y="280" type="line"/>
			<point x="363" y="398" type="line"/>
		</contour>
		<contour>
			<point x="343" y="421" type="curve"/>
			<point x="261" y="421" type="line"/>
			<point x="261" y="548" type="line"/>
			<point x="343" y="548" type="line" smooth="yes"/>
			<point x="391" y="548"/>
			<point x="425" y="525"/>
			<point x="425" y="484" type="curve"/>
			<point x="425" y="444"/>
			<point x="391" y="421"/>
		</contour>
		<contour>
			<point x="227" y="580" type="line"/>
			<point x="227" y="280" type="line"/>
			<point x="261" y="280" type="line"/>
			<point x="261" y="388" type="line"/>
			<point x="349" y="388" type="line" smooth="yes"/>
			<point x="411" y="388"/>
			<point x="459" y="428"/>
			<point x="459" y="484" type="curve"/>
			<point x="459" y="541"/>
			<point x="411" y="580"/>
			<point x="349" y="580" type="curve"/>
		</contour>
	</outline>
</glyph>
<glyph name="macron" format="2">
	<advance width="442"/>
	<unicode hex="00AF"/>
	<anchor x="221" y="704" name="top"/>
	<anchor x="221" y="517" name="_top"/>
	<outline>
		<contour>
			<point x="66" y="639" type="line"/>
			<point x="66" y="603" type="line"/>
			<point x="376" y="603" type="line"/>
			<point x="376" y="639" type="line"/>
		</contour>
	</outline>
</glyph>
<glyph name="degree" format="2">
	<advance width="432"/>
	<unicode hex="00B0"/>
	<outline>
		<contour>
			<point x="216" y="443" type="curve"/>
			<point x="216" y="443" type="line"/>
			<point x="291" y="443"/>
			<point x="346" y="497"/>
			<point x="346" y="571" type="curve"/>
			<point x="346" y="645"/>
			<point x="291" y="699"/>
			<point x="216" y="699" type="curve"/>
			<point x="141" y="699"/>
			<point x="86" y="645"/>
			<point x="86" y="571" type="curve"/>
			<point x="86" y="497"/>
			<point x="141" y="443"/>
		</contour>
		<contour>
			<point x="216" y="477" type="curve"/>
			<point x="216" y="477" type="line"/>
			<point x="161" y="477"/>
			<point x="122" y="516"/>
			<point x="122" y="571" type="curve"/>
			<point x="122" y="626"/>
			<point x="161" y="665"/>
			<point x="216" y="665" type="curve"/>
			<point x="271" y="665"/>
			<point x="310" y="626"/>
			<point x="310" y="571" type="curve"/>
			<point x="310" y="516"/>
			<point x="271" y="477"/>
		</contour>
	</outline>
</glyph>
<glyph name="acute" format="2">
	<advance width="259"/>
	<unicode hex="00B4"/>
	<anchor x="72" y="704" name="top"/>
	<anchor x="72" y="517" name="_top"/>
	<outline>
		<contour>
			<point x="171" y="718" type="line"/>
			<point x="46" y="576" type="line"/>
			<point x="94" y="576" type="line"/>
			<point x="212" y="709" type="line"/>
		</contour>
	</outline>
</glyph>
<glyph name="paragraph" format="2">
	<advance width="610"/>
	<unicode hex="00B6"/>
	<outline>
		<contour>
			<point x="302" y="303" type="curve"/>
			<point x="302" y="-50" type="line"/>
			<point x="338" y="-50" type="line"/>
			<point x="338" y="651" type="line"/>
			<point x="472" y="651" type="line"/>
			<point x="472" y="-50" type="line"/>
			<point x="508" y="-50" type="line"/>
			<point x="508" y="687" type="line"/>
			<point x="294" y="687" type="line"/>
			<point x="178" y="687"/>
			<point x="81" y="612"/>
			<point x="81" y="496" type="curve"/>
			<point x="81" y="382"/>
			<point x="168" y="303"/>
		</contour>
	</outline>
</glyph>
<glyph name="cedilla" format="2">
	<advance width="271"/>
	<unicode hex="00B8"/>
	<anchor x="141" y="0" name="_bottom"/>
	<outline>
		<contour>
			<point x="128" y="-192" type="curve"/>
			<point x="128" y="-192" type="line"/>
			<point x="178" y="-192"/>
			<point x="220" y="-154"/>
			<point x="220" y="-109" type="curve"/>
			<point x="220" y="-72"/>
			<point x="193" y="-45"/>
			<point x="154" y="-45" type="curve"/>
			<point x="136" y="-45"/>
			<point x="113" y="-54"/>
			<point x="97" y="-67" type="curve"/>
			<point x="131" y="-67" type="line"/>
			<point x="164" y="11" type="line"/>
			<point x="125" y="11" type="line"/>
			<point x="92" y="-67" type="line"/>
			<point x="108" y="-84" type="line"/>
			<point x="116" y="-78"/>
			<point x="130" y="-73"/>
			<point x="142" y="-73" type="curve"/>
			<point x="167" y="-73"/>
			<point x="184" y="-88"/>
			<point x="184" y="-109" type="curve"/>
			<point x="184" y="-133"/>
			<point x="158" y="-156"/>
			<point x="128" y="-156" type="curve"/>
			<point x="105" y="-156"/>
			<point x="81" y="-147"/>
			<point x="62" y="-131" type="curve"/>
			<point x="47" y="-164" type="line"/>
			<point x="71" y="-182"/>
			<point x="101" y="-192"/>
		</contour>
	</outline>
</glyph>
<glyph name="AE" format="2">
	<advance width="1017"/>
	<unicode hex="00C6"/>
	<outline>
		<contour>
			<point x="470" y="687" type="line"/>
			<point x="73" y="0" type="line"/>
			<point x="115" y="0" type="line"/>
			<point x="216" y="175" type="line"/>
			<point x="490" y="175" type="line"/>
			<point x="490" y="0" type="line"/>
			<point x="941" y="0" type="line"/>
			<point x="941" y="36" type="line"/>
			<point x="526" y="36" type="line"/>
			<point x="526" y="332" type="line"/>
			<point x="910" y="332" type="line"/>
			<point x="910" y="368" type="line"/>
			<point x="526" y="368" type="line"/>
			<point x="526" y="651" type="line"/>
			<point x="941" y="651" type="line"/>
			<point x="941" y="687" type="line"/>
		</contour>
		<contour>
			<point x="490" y="211" type="line"/>
			<point x="237" y="211" type="line"/>
			<point x="490" y="651" type="line"/>
		</contour>
	</outline>
</glyph>
<glyph name="Eth" format="2">
	<advance width="828"/>
	<unicode hex="00D0"/>
	<outline>
		<contour>
			<point x="162" y="687" type="line"/>
			<point x="162" y="0" type="line"/>
			<point x="397" y="0" type="line" smooth="yes"/>
			<point x="603" y="0"/>
			<point x="749" y="143"/>
			<point x="749" y="344" type="curve"/>
			<point x="749" y="545"/>
			<point x="603" y="687"/>
			<point x="397" y="687" type="curve"/>
		</contour>
		<contour>
			<point x="397" y="36" type="curve"/>
			<point x="198" y="36" type="line"/>
			<point x="198" y="651" type="line"/>
			<point x="397" y="651" type="line" smooth="yes"/>
			<point x="582" y="651"/>
			<point x="713" y="524"/>
			<point x="713" y="344" type="curve"/>
			<point x="713" y="164"/>
			<point x="582" y="36"/>
		</contour>
		<contour>
			<point x="74" y="368" type="line"/>
			<point x="74" y="332" type="line"/>
			<point x="422" y="332" type="line"/>
			<point x="423" y="368" type="line"/>
		</contour>
	</outline>
</glyph>
<glyph name="multiply" format="2">
	<advance width="511"/>
	<unicode hex="00D7"/>
	<outline>
		<contour>
			<point x="81" y="185" type="line"/>
			<point x="106" y="159" type="line"/>
			<point x="431" y="484" type="line"/>
			<point x="405" y="509" type="line"/>
		</contour>
		<contour>
			<point x="80" y="484" type="line"/>
			<point x="405" y="159" type="line"/>
			<point x="430" y="185" type="line"/>
			<point x="106" y="509" type="line"/>
		</contour>
	</outline>
</glyph>
<glyph name="germandbls" format="2">
	<advance width="519"/>
	<unicode hex="00DF"/>
	<outline>
		<contour>
			<point x="68" y="523" type="curve"/>
			<point x="68" y="0" type="line"/>
			<point x="104" y="0" type="line"/>
			<point x="104" y="517" type="line" smooth="yes"/>
			<point x="104" y="601"/>
			<point x="173" y="671"/>
			<point x="256" y="671" type="curve"/>
			<point x="338" y="671"/>
			<point x="407" y="602"/>
			<point x="407" y="519" type="curve"/>
			<point x="407" y="437"/>
			<point x="345" y="379"/>
			<point x="258" y="379" type="curve"/>
			<point x="190" y="379" type="line"/>
			<point x="190" y="343" type="line"/>
			<point x="264" y="343" type="line" smooth="yes"/>
			<point x="364" y="343"/>
			<point x="434" y="282"/>
			<point x="434" y="196" type="curve"/>
			<point x="434" y="109"/>
			<point x="358" y="36"/>
			<point x="267" y="36" type="curve"/>
			<point x="190" y="36" type="line"/>
			<point x="190" y="0" type="line"/>
			<point x="287" y="0" type="line" smooth="yes"/>
			<point x="386" y="0"/>
			<point x="470" y="87"/>
			<point x="470" y="191" type="curve"/>
			<point x="470" y="264"/>
			<point x="423" y="336"/>
			<point x="356" y="365" type="curve"/>
			<point x="407" y="389"/>
			<point x="443" y="455"/>
			<point x="443" y="524" type="curve"/>
			<point x="443" y="623"/>
			<point x="358" y="707"/>
			<point x="256" y="707" type="curve"/>
			<point x="154" y="707"/>
			<point x="68" y="623"/>
		</contour>
	</outline>
</glyph>
<glyph name="eth" format="2">
	<advance width="593"/>
	<unicode hex="00F0"/>
	<outline>
		<contour>
			<point x="296" y="24" type="curve"/>
			<point x="296" y="24" type="line"/>
			<point x="174" y="24"/>
			<point x="87" y="116"/>
			<point x="87" y="245" type="curve"/>
			<point x="87" y="375"/>
			<point x="174" y="467"/>
			<point x="297" y="467" type="curve"/>
			<point x="423" y="467"/>
			<point x="506" y="377"/>
			<point x="506" y="249" type="curve"/>
			<point x="506" y="117"/>
			<point x="419" y="24"/>
		</contour>
		<contour>
			<point x="221" y="713" type="curve"/>
			<point x="188" y="696" type="line"/>
			<point x="307" y="622"/>
			<point x="417" y="524"/>
			<point x="475" y="414" type="curve"/>
			<point x="427" y="479"/>
			<point x="362" y="503"/>
			<point x="297" y="503" type="curve"/>
			<point x="153" y="503"/>
			<point x="51" y="397"/>
			<point x="51" y="246" type="curve"/>
			<point x="51" y="95"/>
			<point x="153" y="-12"/>
			<point x="297" y="-12" type="curve"/>
			<point x="441" y="-12"/>
			<point x="542" y="99"/>
			<point x="542" y="255" type="curve"/>
			<point x="542" y="440"/>
			<point x="390" y="613"/>
		</contour>
		<contour>
			<point x="176" y="578" type="line"/>
			<point x="191" y="545" type="line"/>
			<point x="431" y="652" type="line"/>
			<point x="416" y="685" type="line"/>
		</contour>
	</outline>
</glyph>
<glyph name="divide" format="2">
	<advance width="618"/>
	<unicode hex="00F7"/>
	<outline>
		<contour>
			<point x="73" y="352" type="line"/>
			<point x="73" y="316" type="line"/>
			<point x="532" y="316" type="line"/>
			<point x="532" y="352" type="line"/>
		</contour>
		<contour>
			<point x="304" y="142" type="curve"/>
			<point x="304" y="142" type="line"/>
			<point x="320" y="142"/>
			<point x="333" y="156"/>
			<point x="333" y="173" type="curve"/>
			<point x="333" y="188"/>
			<point x="320" y="202"/>
			<point x="304" y="202" type="curve"/>
			<point x="286" y="202"/>
			<point x="273" y="188"/>
			<point x="273" y="173" type="curve"/>
			<point x="273" y="156"/>
			<point x="286" y="142"/>
		</contour>
		<contour>
			<point x="304" y="466" type="curve"/>
			<point x="304" y="466" type="line"/>
			<point x="320" y="466"/>
			<point x="333" y="480"/>
			<point x="333" y="497" type="curve"/>
			<point x="333" y="512"/>
			<point x="320" y="526"/>
			<point x="304" y="526" type="curve"/>
			<point x="286" y="526"/>
			<point x="273" y="512"/>
			<point x="273" y="497" type="curve"/>
			<point x="273" y="480"/>
			<point x="286" y="466"/>
		</contour>
	</outline>
</glyph>
<glyph name="dcaron" format="2">
	<advance width="590"/>
	<unicode hex="010F"/>
	<outline>
		<contour>
			<point x="282" y="-12" type="curve"/>
			<point x="282" y="-12" type="line"/>
			<point x="423" y="-12"/>
			<point x="522" y="100"/>
			<point x="522" y="259" type="curve"/>
			<point x="522" y="417"/>
			<point x="423" y="529"/>
			<point x="282" y="529" type="curve"/>
			<point x="156" y="529"/>
			<point x="50" y="406"/>
			<point x="50" y="259" type="curve"/>
			<point x="50" y="112"/>
			<point x="156" y="-12"/>
		</contour>
		<contour>
			<point x="289" y="24" type="curve"/>
			<point x="289" y="24" type="line"/>
			<point x="179" y="24"/>
			<point x="86" y="131"/>
			<point x="86" y="259" type="curve"/>
			<point x="86" y="386"/>
			<point x="179" y="493"/>
			<point x="289" y="493" type="curve"/>
			<point x="404" y="493"/>
			<point x="486" y="396"/>
			<point x="486" y="259" type="curve"/>
			<point x="486" y="121"/>
			<point x="404" y="24"/>
		</contour>
		<contour>
			<point x="486" y="699" type="line"/>
			<point x="486" y="0" type="line"/>
			<point x="522" y="0" type="line"/>
			<point x="522" y="699" type="line"/>
		</contour>
		<contour>
			<point x="570" y="547" type="curve"/>
			<point x="596" y="528" type="line"/>
			<point x="633" y="579"/>
			<point x="654" y="622"/>
			<point x="654" y="657" type="curve"/>
			<point x="654" y="684"/>
			<point x="641" y="699"/>
			<point x="622" y="699" type="curve"/>
			<point x="604" y="699"/>
			<point x="591" y="686"/>
			<point x="591" y="669" type="curve"/>
			<point x="591" y="652"/>
			<point x="603" y="639"/>
			<point x="622" y="639" type="curve"/>
			<point x="615" y="611"/>
			<point x="596" y="577"/>
		</contour>
	</outline>
</glyph>
<glyph name="dcroat" format="2">
	<advance width="590"/>
	<unicode hex="0111"/>
	<outline>
		<contour>
			<point x="300" y="628" type="line"/>
			<point x="300" y="592" type="line"/>
			<point x="590" y="592" type="line"/>
			<point x="590" y="628" type="line"/>
		</contour>
		<contour>
			<point x="282" y="-12" type="curve"/>
			<point x="282" y="-12" type="line"/>
			<point x="423" y="-12"/>
			<point x="522" y="100"/>
			<point x="522" y="259" type="curve"/>
			<point x="522" y="417"/>
			<point x="423" y="529"/>
			<point x="282" y="529" type="curve"/>
			<point x="156" y="529"/>
			<point x="50" y="406"/>
			<point x="50" y="259" type="curve"/>
			<point x="50" y="112"/>
			<point x="156" y="-12"/>
		</contour>
		<contour>
			<point x="289" y="24" type="curve"/>
			<point x="289" y="24" type="line"/>
			<point x="179" y="24"/>
			<point x="86" y="131"/>
			<point x="86" y="259" type="curve"/>
			<point x="86" y="386"/>
			<point x="179" y="493"/>
			<point x="289" y="493" type="curve"/>
			<point x="404" y="493"/>
			<point x="486" y="396"/>
			<point x="486" y="259" type="curve"/>
			<point x="486" y="121"/>
			<point x="404" y="24"/>
		</contour>
		<contour>
			<point x="486" y="699" type="line"/>
			<point x="486" y="0" type="line"/>
			<point x="522" y="0" type="line"/>
			<point x="522" y="699" type="line"/>
		</contour>
	</outline>
</glyph>
<glyph name="lcaron" format="2">
	<advance width="172"/>
	<unicode hex="013E"/>
	<anchor x="86" y="699" name="top"/>
	<anchor x="86" y="0" name="bottom"/>
	<outline>
		<contour>
			<point x="68" y="699" type="line"/>
			<point x="68" y="0" type="line"/>
			<point x="104" y="0" type="line"/>
			<point x="104" y="699" type="line"/>
		</contour>
		<contour>
			<point x="163" y="547" type="curve"/>
			<point x="189" y="528" type="line"/>
			<point x="228" y="579"/>
			<point x="247" y="622"/>
			<point x="247" y="657" type="curve"/>
			<point x="247" y="684"/>
			<point x="234" y="699"/>
			<point x="215" y="699" type="curve"/>
			<point x="197" y="699"/>
			<point x="184" y="686"/>
			<point x="184" y="669" type="curve"/>
			<point x="184" y="652"/>
			<point x="196" y="639"/>
			<point x="215" y="639" type="curve"/>
			<point x="208" y="611"/>
			<point x="189" y="577"/>
		</contour>
	</outline>
</glyph>
<glyph name="Lslash" format="2">
	<advance width="711"/>
	<unicode hex="0141"/>
	<anchor x="223" y="687" name="top"/>
	<outline>
		<contour>
			<point x="74" y="293" type="line"/>
			<point x="74" y="252" type="line"/>
			<point x="373" y="406" type="line"/>
			<point x="373" y="447" type="line"/>
		</contour>
		<contour>
			<point x="205" y="687" type="line"/>
			<point x="205" y="0" type="line"/>
			<point x="637" y="0" type="line"/>
			<point x="637" y="36" type="line"/>
			<point x="230" y="36" type="line"/>
			<point x="241" y="24" type="line"/>
			<point x="241" y="687" type="line"/>
		</contour>
	</outline>
</glyph>
<glyph name="OE" format="2">
	<advance width="1038"/>
	<unicode hex="0152"/>
	<outline>
		<contour>
			<point x="79" y="344" type="curve"/>
			<point x="79" y="344" type="line"/>
			<point x="79" y="151"/>
			<point x="240" y="0"/>
			<point x="431" y="0" type="curve"/>
			<point x="962" y="0" type="line"/>
			<point x="962" y="36" type="line"/>
			<point x="547" y="36" type="line"/>
			<point x="547" y="332" type="line"/>
			<point x="931" y="332" type="line"/>
			<point x="931" y="368" type="line"/>
			<point x="547" y="368" type="line"/>
			<point x="547" y="651" type="line"/>
			<point x="962" y="651" type="line"/>
			<point x="962" y="687" type="line"/>
			<point x="431" y="687" type="line" smooth="yes"/>
			<point x="240" y="687"/>
			<point x="79" y="537"/>
		</contour>
		<contour>
			<point x="115" y="344" type="curve"/>
			<point x="115" y="344" type="line"/>
			<point x="115" y="517"/>
			<point x="259" y="651"/>
			<point x="431" y="651" type="curve"/>
			<point x="511" y="651" type="line"/>
			<point x="511" y="36" type="line"/>
			<point x="431" y="36" type="line" smooth="yes"/>
			<point x="259" y="36"/>
			<point x="115" y="170"/>
		</contour>
	</outline>
</glyph>
<glyph name="breve" format="2">
	<advance width="389"/>
	<unicode hex="02D8"/>
	<anchor x="194" y="704" name="top"/>
	<anchor x="194" y="517" name="_top"/>
	<outline>
		<contour>
			<point x="194" y="589" type="curve"/>
			<point x="194" y="589" type="line"/>
			<point x="247" y="589"/>
			<point x="300" y="609"/>
			<point x="340" y="649" type="curve"/>
			<point x="314" y="675" type="line"/>
			<point x="282" y="643"/>
			<point x="238" y="626"/>
			<point x="194" y="626" type="curve"/>
			<point x="150" y="626"/>
			<point x="106" y="643"/>
			<point x="74" y="675" type="curve"/>
			<point x="48" y="649" type="line"/>
			<point x="89" y="609"/>
			<point x="141" y="589"/>
		</contour>
	</outline>
</glyph>
<glyph name="emdash" format="2">
	<advance width="902"/>
	<unicode hex="2014"/>
	<outline>
		<contour>
			<point x="66" y="290" type="line"/>
			<point x="66" y="254" type="line"/>
			<point x="836" y="254" type="line"/>
			<point x="836" y="290" type="line"/>
		</contour>
	</outline>
</glyph>
<glyph name="bullet" format="2">
	<advance width="354"/>
	<unicode hex="2022"/>
	<outline>
		<contour>
			<point x="178" y="196" type="curve"/>
			<point x="178" y="196" type="line"/>
			<point x="233" y="196"/>
			<point x="279" y="242"/>
			<point x="279" y="298" type="curve"/>
			<point x="279" y="353"/>
			<point x="233" y="399"/>
			<point x="178" y="399" type="curve"/>
			<point x="122" y="399"/>
			<point x="76" y="353"/>
			<point x="76" y="298" type="curve"/>
			<point x="76" y="242"/>
			<point x="122" y="196"/>
		</contour>
	</outline>
</glyph>
<glyph name="guilsinglright" format="2">
	<advance width="337"/>
	<unicode hex="203A"/>
	<outline>
		<contour>
			<point x="68" y="60" type="line"/>
			<point x="102" y="55" type="line"/>
			<point x="270" y="249" type="line"/>
			<point x="102" y="442" type="line"/>
			<point x="68" y="437" type="line"/>
			<point x="230" y="249" type="line"/>
		</contour>
	</outline>
</glyph>
<glyph name="minus" format="2">
	<advance width="659"/>
	<unicode hex="2212"/>
	<outline>
		<contour>
			<point x="100" y="352" type="line"/>
			<point x="100" y="316" type="line"/>
			<point x="559" y="316" type="line"/>
			<point x="559" y="352" type="line"/>
		</contour>
	</outline>
</glyph>
<glyph name="a.alt" format="2">
	<advance width="591"/>
	<anchor x="295" y="517" name="top"/>
	<anchor x="523" y="0" name="bottom"/>
	<outline>
		<contour>
			<point x="487" y="517" type="line"/>
			<point x="487" y="0" type="line"/>
			<point x="523" y="0" type="line"/>
			<point x="523" y="517" type="line"/>
		</contour>
		<contour>
			<point x="283" y="-12" type="curve"/>
			<point x="283" y="-12" type="line"/>
			<point x="418" y="-12"/>
			<point x="513" y="99"/>
			<point x="513" y="259" type="curve"/>
			<point x="513" y="418"/>
			<point x="418" y="529"/>
			<point x="283" y="529" type="curve"/>
			<point x="146" y="529"/>
			<point x="51" y="418"/>
			<point x="51" y="259" type="curve"/>
			<point x="51" y="99"/>
			<point x="146" y="-12"/>
		</contour>
		<contour>
			<point x="290" y="24" type="curve"/>
			<point x="290" y="24" type="line"/>
			<point x="171" y="24"/>
			<point x="87" y="121"/>
			<point x="87" y="259" type="curve"/>
			<point x="87" y="397"/>
			<point x="171" y="493"/>
			<point x="290" y="493" type="curve"/>
			<point x="406" y="493"/>
			<point x="487" y="397"/>
			<point x="487" y="259" type="curve"/>
			<point x="487" y="121"/>
			<point x="406" y="24"/>
		</contour>
	</outline>
</glyph>
<glyph name="descender" format="2">
	<advance width="238"/>
	<anchor x="101" y="259" name="loop_left"/>
	<anchor x="137" y="259" name="loop_right"/>
	<outline>
		<contour>
			<point x="101" y="517" type="line"/>
			<point x="101" y="-172" type="line"/>
			<point x="137" y="-172" type="line"/>
			<point x="137" y="517" type="line"/>
		</contour>
	</outline>
</glyph>
<glyph name="k_arms" format="2">
	<advance width="393"/>
	<anchor x="3" y="125" name="k_arms"/>
	<outline>
		<contour>
			<point x="130" y="255" type="line"/>
			<point x="329" y="0" type="line"/>
			<point x="375" y="0" type="line"/>
			<point x="155" y="280" type="line"/>
			<point x="387" y="517" type="line"/>
			<point x="337" y="517" type="line"/>
			<point x="3" y="177" type="line"/>
			<point x="3" y="125" type="line"/>
		</contour>
	</outline>
</glyph>
<glyph name="lowercase_m_shoulder" format="2">
	<advance width="440"/>
	<anchor x="20" y="339" name="_shoulder"/>
	<anchor x="355" y="339" name="shoulder"/>
	<outline>
		<contour>
			<point x="319" y="334" type="curve"/>
			<point x="319" y="0" type="line"/>
			<point x="355" y="0" type="line"/>
			<point x="355" y="339" type="line" smooth="yes"/>
			<point x="355" y="450"/>
			<point x="283" y="529"/>
			<point x="180" y="529" type="curve"/>
			<point x="81" y="529"/>
			<point x="11" y="472"/>
			<point x="11" y="391" type="curve"/>
			<point x="20" y="339" type="line"/>
			<point x="20" y="429"/>
			<point x="84" y="493"/>
			<point x="175" y="493" type="curve"/>
			<point x="259" y="493"/>
			<point x="319" y="427"/>
		</contour>
	</outline>
</glyph>
<glyph name="thorn_stem" format="2">
	<advance width="240"/>
	<anchor x="138" y="259" name="loop_right"/>
	<outline>
		<contour>
			<point x="102" y="699" type="line"/>
			<point x="102" y="-172" type="line"/>
			<point x="138" y="-172" type="line"/>
			<point x="138" y="699" type="line"/>
		</contour>
	</outline>
</glyph>
